# xmcd
#
# Track frame offsets: 
#        150
#        4215
#        20695
#        36450
#        52240
#        67003
#        90362
#        110723
#        125915
#        139005
#        142868
#        158703
#        176370
#        191560
#        206773
#
# Disc length: 2855 seconds
#
# Revision: 0
# Processed by: cddbd v1.5.2PL0 Copyright (c) Steve Scherf et al.
# Submitted via: ExactAudioCopy v0.99pb5
#
DISCID=dd0b250f
DTITLE=Steve Bassett - Standing On The Verge
DYEAR=1992
DGENRE=Rhythmic Soul
TTITLE0=His Eye Is On The Sparrow
TTITLE1=Trust Me
TTITLE2=In The Time It Takes To Cry
TTITLE3=Living A Lie
TTITLE4=No Good For Her
TTITLE5=Election Day
TTITLE6=Everlastingly Free
TTITLE7=Keep Pushing Me
TTITLE8=Standing On The Verge Of Letting Go
TTITLE9=Letting Go
TTITLE10=Sing Loud
TTITLE11=Money (Tired Of Working)
TTITLE12=Nosey Rosey
TTITLE13=Life Is A Carnival
TTITLE14=Until Then
EXTD=
EXTT0=
EXTT1=
EXTT2=
EXTT3=
EXTT4=
EXTT5=
EXTT6=
EXTT7=
EXTT8=
EXTT9=
EXTT10=
EXTT11=
EXTT12=
EXTT13=
EXTT14=
PLAYORDER=
